# xmcd
#
# Track frame offsets:
# 150
# 1624
# 20369
# 30375
# 40500
# 58018
# 73573
# 85493
# 96071
# 105021
# 119233
# 128723
# 141935
# 149783
# 158535
# 170355
# 184957
# 199712
# 213590
# 227025
# 240514
# 257662
# 276219
# 292501
# 302314
# 313309
# 323028
# 333311
#
# Disc length: 4671 seconds
#
#
# Revision: 0
# Processed by: cddbd v1.5.2PL0 Copyright (c) Steve Scherf et al.
# Submitted via: FreeRIP 2.945 
#
DISCID=7d123d1c
DTITLE=Novinho da Paraiba - Novinho da Paraiba - Show DVD
DYEAR=2006
DGENRE=Country
TTITLE0=01- Abertura
TTITLE1=02- Voce me Viu Chorar
TTITLE2=03- De Coracao Pra Coracao
TTITLE3=04- Mistura de Folclore
TTITLE4=05- A Loira e a Morena
TTITLE5=06- O Gemidinho
TTITLE6=07- Umbiguinho de Fora
TTITLE7=08- O Primeiro Beijo
TTITLE8=09- No Cantinho da Cancela
TTITLE9=10- Amor Pra Mais de Mil
TTITLE10=11- Mel na Boca
TTITLE11=12- Cheiro de Nos
TTITLE12=13- Caboclo Nordestino
TTITLE13=14- Isso Vale um Abraco
TTITLE14=15- Gosto de Voce
TTITLE15=16- Estrela Cadente
TTITLE16=17- Solidao no Peito
TTITLE17=18- Nao Diga Adeus
TTITLE18=19- E Como a Onda do Mar
TTITLE19=20- Gosto Proibido
TTITLE20=21- Voce se Despedindo
TTITLE21=22- Forro em Nova York
TTITLE22=23- Fogo no Bumbum
TTITLE23=24- Chovendo Sinceridade
TTITLE24=25- Machucando o Coracao
TTITLE25=26- Firinrim Fom Fom
TTITLE26=27- Noite de Forro
TTITLE27=28- Quando Voce Quizer Voltar
EXTD=
EXTT0=
EXTT1=
EXTT2=
EXTT3=
EXTT4=
EXTT5=
EXTT6=
EXTT7=
EXTT8=
EXTT9=
EXTT10=
EXTT11=
EXTT12=
EXTT13=
EXTT14=
EXTT15=
EXTT16=
EXTT17=
EXTT18=
EXTT19=
EXTT20=
EXTT21=
EXTT22=
EXTT23=
EXTT24=
EXTT25=
EXTT26=
EXTT27=
PLAYORDER=
